<svg width="211" height="210" viewBox="0 0 211 210" fill="none" xmlns="http://www.w3.org/2000/svg">
<circle cx="105" cy="105" r="95.5" fill="white" stroke="black"/>
<path d="M9 113.435C12.9878 112.258 17.8061 110.212 20.8125 107.205C23.8445 104.173 25.3739 99.7383 27.7292 96.2054C30.3495 92.275 32.4814 87.6954 36.1875 84.6221C40.5629 80.9937 45.0289 78.0083 50.2083 75.5804C57.8999 71.975 66.5461 72.7666 74.8542 72.9554C79.6904 73.0653 83.0372 74.7708 86.0625 78.5804C88.7786 82.0007 91.4043 85.5889 94.5 88.6846C97.7528 91.9374 101.012 95.0381 103.896 98.6429C108.902 104.901 115.946 109.453 123.458 112.018C131.078 114.62 138.913 116.697 147.042 116.81C154.227 116.909 162.754 115.894 169 111.976C174.017 108.829 176.102 103.047 179.833 98.6846C182.336 95.7588 184.554 92.9832 187.583 90.5596C189.228 89.2437 191.199 88.1885 192.75 86.8096C193.849 85.8331 196.979 86.4346 198.375 86.4346" stroke="black" stroke-width="3" stroke-linecap="round"/>
<path d="M100.5 5L106.225 24.002H124.752L109.763 35.7459L115.489 54.748L100.5 43.0041L85.5115 54.748L91.2366 35.7459L76.2481 24.002H94.7749L100.5 5Z" fill="#FFE600"/>
<path d="M155.25 136.5C154.533 138.381 154.561 140.731 153.375 142.417C151.99 144.385 147.888 145.704 145.875 146.917C139.477 150.773 131.898 152.018 124.875 154.125" stroke="#1C19B1" stroke-width="10" stroke-linecap="round"/>
<path d="M162 132C160.399 141.027 152.325 147.964 143.917 150.667C143.05 150.945 141.889 151.401 141 151.5C139.894 151.623 141.176 151.462 141.833 151.167C147.916 148.432 153.718 144.851 159.292 141.208C165.365 137.239 171.281 132.796 176.583 127.833C178.605 125.941 179.753 124.204 180.833 121.708C182.334 118.24 184.528 115.116 185.625 111.458C186.392 108.903 185.475 106.29 186.75 103.875C187.588 102.287 189.004 99.1349 190.5 98.1667C191.507 97.5154 192.662 94.8625 190.792 98.0417C186.689 105.017 182.125 111.343 177.375 117.875C172.925 123.994 167.67 129.023 161.667 133.667C156.256 137.852 150.751 142.039 145 145.75C137.096 150.85 128.465 154.684 119.75 158.167C115.268 159.958 110.737 161.641 106.208 163.313C104.327 164.007 102.193 164.978 100.167 165.292C99.7729 165.353 100.338 164.464 100.625 164.188C102.947 161.957 105.549 159.945 108.167 158.083C120.499 149.316 134.162 143.317 147.708 136.75C151.54 134.892 155.285 132.879 159.083 130.958C159.385 130.806 162.634 129.427 159.792 130.313C149.988 133.368 140.341 136.923 130.542 140C121.573 142.816 112.104 146.049 102.625 146.542C98.7626 146.742 103.756 144.877 104.521 144.583C117.886 139.443 132.205 136.097 146.063 132.604C151.357 131.27 167.276 127.533 161.875 128.333C150.895 129.96 139.955 131.737 128.938 133.167C108.932 135.763 88.8137 137.794 68.875 140.875C67.6497 141.064 66.4263 141.268 65.2083 141.5C64.5692 141.622 63.111 141.43 63.3333 142.042C63.7042 143.061 65.5064 141.988 66.5833 141.854C74.253 140.905 81.8656 139.163 89.3958 137.458C92.7275 136.704 102.658 134.881 99.25 134.646C92.8368 134.204 86.2085 134.569 79.7917 134.667C74.8981 134.741 69.9969 134.874 65.125 135.375C64.3024 135.46 63.4836 135.58 62.6667 135.708C62.1474 135.79 61.3304 135.633 61.1458 136.125C60.8427 136.933 68.4474 139.353 68.7708 139.438C73.3322 140.63 78.0034 140.7 82.6042 141.563C85.041 142.019 77.7846 143.759 77.3958 143.875C75.5587 144.421 70.0184 145.829 69.5 148.292C68.9634 150.841 77.3995 152.849 78.4583 153.083C89.6546 155.565 102.527 155.606 113.75 153.396C114.168 153.314 128.327 149.343 126.979 147.771C125.218 145.716 120.234 145.602 117.938 145.667C110.3 145.882 102.217 148.558 95.3333 151.708C93.8603 152.382 86.6496 155.123 87.4167 158C87.7031 159.074 90.7836 158.958 91.5417 158.958C95.1181 158.958 98.5853 157.563 101.271 155.208C102.716 153.941 105.054 151.374 103.792 149.271C102.259 146.716 97.8591 147.737 95.625 148.292C90.7325 149.505 85.6834 151.552 81.6042 154.563C79.9737 155.766 81.5946 155.685 82.7917 156.042C86.3278 157.095 89.664 157.269 93.2708 156.313C93.9945 156.121 99.6233 154.622 98.6875 152.854C97.5495 150.705 91.1562 150.412 89.3542 150.333C82.982 150.055 74.0317 150.709 68.5 154.333C67.6468 154.892 70.6031 154.399 71.5417 154C78.3677 151.096 84.3541 146.09 89.9167 141.292C91.6849 139.766 95.6568 137.099 95.8333 134.333C95.8971 133.334 95.394 132.314 95.4167 131.292C95.5016 127.471 97.3452 124.296 98.625 120.833C99.3968 118.745 98.1151 117.494 97.0417 115.792C93.7686 110.6 90.6477 105.32 87.1667 100.292C84.2495 96.0779 80.6706 92.1289 77.0417 88.5C74.6902 86.1485 71.5142 84.3706 68.7083 82.5C66.8284 81.2467 64.6698 80.7763 62.625 79.9583C60.1723 78.9773 57.3642 80.2819 55.5 81.6667C53.1228 83.4326 50.2498 84.7085 48.1667 86.7917C45.274 89.6843 39.8773 90.7537 38.0833 94.8542C37.0213 97.2817 35.1822 99.4338 34.125 101.813C32.2798 105.964 28.7235 109.614 26.0417 113.063C25.0544 114.332 23.5832 115.608 22.3125 116.625C19.4983 118.876 21.1302 122.387 24.0625 124.063C26.6626 125.548 31.6062 124.155 34.1667 123.438C39.5967 121.915 44.9257 119.294 49.6875 116.292C52.9196 114.254 54.6221 111.716 56.5 108.479C58.2999 105.377 60.2257 102.415 61.2708 98.9583C62.1294 96.1185 58.3108 99.5837 57.3958 100.125C50.9314 103.95 44.204 107.329 38 111.583C37.8778 111.667 32.9065 114.948 33.7917 115.479C34.7386 116.047 36.0659 115.937 37.0833 115.708C42.0095 114.599 46.8573 110.433 50.5 107.167C52.3312 105.525 57.2171 101.421 56.9167 98.4167C56.5954 95.2036 42.2415 104.235 41.5417 104.708C37.9664 107.125 33.5548 110.213 32.0417 114.5C31.7783 115.246 32.1003 115.822 32.9583 115.708C34.8532 115.458 36.933 114.289 38.5625 113.479C43.422 111.064 48.0853 108.284 52.5833 105.25C57.2877 102.077 61.8964 98.6684 66.2292 95C68.0223 93.4818 70.07 91.7958 71.2083 89.6667C72.8737 86.5519 67.3758 90.2821 66.9583 90.5417C62.5025 93.3121 57.8326 95.7033 53.375 98.4583C53.3583 98.4686 51.0185 99.8218 51.0833 100.146C51.2899 101.179 53.0238 99.3195 53.9583 98.8333C57.9208 96.7719 62.452 94.1643 65.2083 90.5417C68.7194 85.9272 57.1933 91.25 56.5417 91.5833C54.4371 92.6599 52.3657 93.8037 50.2917 94.9375C49.867 95.1696 48.279 95.7979 47.875 96.2917C47.459 96.8001 49.1738 96.0565 49.7917 95.8333C52.1859 94.9687 54.4436 93.7747 56.7083 92.625C57.0764 92.4382 65.1161 88.2377 64.625 87.9167C62.7115 86.6656 57.2545 90.567 55.9167 91.375C53.1521 93.0448 34.6571 103.346 40.5 107.625C48.035 113.144 57.1975 108.509 63.75 103.917C65.1828 102.912 69.5544 100.204 69.6667 97.9583C69.7187 96.918 67.9576 99.1554 67.1667 99.8333C63.456 103.014 59.7361 106.203 56.1667 109.542C51.9132 113.521 47.8902 117.687 44.1667 122.167C43.1853 123.347 40.7391 125.824 40.1667 127.542C39.9921 128.065 48.9076 125.028 49.1667 124.917C55.843 122.058 63.0329 119.248 69.125 115.25C71.3606 113.783 73.3786 112.045 75.1458 110.042C75.3871 109.768 76.9857 108.144 76.9167 107.5C76.8395 106.779 67.8469 111.998 67.5 112.25C64.6364 114.333 61.9877 116.728 59.3125 119.042C58.4495 119.788 56.0417 121.385 55.5417 122.667C55.3084 123.265 56.8516 122.533 57.4167 122.229C59.7524 120.971 61.8621 119.249 63.875 117.542C68.3483 113.747 75.9746 108.059 77.1458 101.813C77.4896 99.9789 74.1605 101.562 73.6875 101.792C68.615 104.259 63.9892 107.977 59.875 111.792C59.8674 111.799 54.9727 116.208 57.125 116.208C61.3989 116.208 66.0578 113.748 69.7083 111.854C73.3951 109.942 79.4915 107.261 81.4167 103.208C82.6377 100.638 81.0874 102.382 80.2292 103.646C77.2388 108.05 74.0688 112.644 71.8125 117.479C71.1106 118.983 71.1764 119.461 72.6667 120.188C77.4939 122.539 82.178 120.306 84.1458 115.542C85.2643 112.834 83.9119 113.396 82.25 115.104C77.0671 120.431 71.8942 126.06 67.1667 131.792C64.8602 134.588 65.1496 135.037 68.75 134.417C77.3203 132.939 86.3756 128.968 93.9167 124.729C94.6131 124.338 102.991 119.58 101.167 117.625C99.7773 116.136 96.1093 117.531 94.7708 118.146C90.2873 120.205 85.6055 124.258 83.1458 128.563C82.4213 129.83 82.182 130.6 83.7292 130.646C89.5707 130.818 95.3784 122.687 94.25 117.25C92.4228 108.446 77.1829 125.29 75.4375 127.729C74.8729 128.518 70.8973 136.887 75.4167 134.125C76.6826 133.351 78.8048 131.221 78.0417 129.542C76.4121 125.957 69.5462 126.496 66.6042 126.792C56.8835 127.769 47.3463 132.068 39.3542 137.563C37.703 138.698 30.5446 143.362 32.3958 146.417C35.0527 150.8 44.6759 146.299 47.5625 145.208C53.08 143.124 58.4254 140.61 63.75 138.083C65.3663 137.316 68.3128 136.336 69.6458 134.896C70.9495 133.488 65.6024 134.009 65.4167 134.042C58.9509 135.191 51.8183 140.016 47.125 144.458C44.4026 147.035 47.5019 148.081 50.0417 147.667C52.2216 147.311 62.1556 140.328 58.125 137.708C55.4242 135.953 50.2883 141.921 48.9583 143.292C44.6332 147.749 39.0063 153.618 37.1667 159.75C35.9345 163.857 57.8218 164.316 60.5833 163.542C64.5397 162.433 67.6167 159.248 64.2083 155.708C63.5878 155.064 61.4362 161.652 63.4583 163.583C66.4536 166.445 71.8232 166.355 75.625 166.417C84.0054 166.552 93.1141 165.771 100.417 161.25C102.128 160.191 106.477 156.891 105.583 154.208C105.059 152.634 101.788 152.758 100.625 152.792C95.7535 152.934 90.6253 154.982 86.25 157C82.5829 158.691 78.2779 160.946 75.7083 164.167C73.4462 167.002 75.564 163.896 76.2917 162.5C78.2771 158.691 80.8027 154.772 81.5 150.458C83.2808 139.444 67.9781 149.832 65.0417 152.25C64.1583 152.977 56.6741 159.75 61.125 159.75C64.4296 159.75 64.5866 156.186 62.9167 153.833C59.9098 149.596 54.9534 153.282 52.3333 155.708C51.9305 156.081 47.2022 160.829 49.6667 159.125C51.6094 157.782 53.3658 156.029 54.5833 154C55.8243 151.932 52.7306 156.436 52.5833 156.667C52.1526 157.341 49.0827 161.393 50.7708 162.167C54.2634 163.767 59.9023 162.899 63.4583 162.396C72.5894 161.105 81.267 157.974 89.1042 153.125C92.7917 150.843 96.1917 148.237 98.6875 144.646C99.6743 143.226 100.213 141.612 101.25 140.229C104.378 136.059 106.083 131.598 106.083 126.375C106.083 125.475 105.874 124.624 105.229 123.979C104.576 123.326 106.062 125.634 106.583 126.396C108.329 128.947 115.118 132.545 117.354 128.771C120.106 124.127 114.065 122.708 110.583 122.708C109.455 122.708 103.795 122.609 103.604 124.521C103.408 126.484 107.483 128.111 108.729 128.583C110.033 129.077 122.583 132.98 122.583 129.333C122.583 122.893 110.358 123.112 106.542 123.688C104.77 123.955 97.6825 124.959 97.2917 127.5C96.9395 129.789 101.654 131.265 103.042 131.563C108.82 132.801 115.325 132.898 121 131.125C123.883 130.224 128.048 128.307 128.562 124.875C129.039 121.701 125.262 117.783 122.125 120.271C117.407 124.013 125.655 128.276 128.583 128.75C131.133 129.162 135 129.98 135 126.542C135 125.482 134.43 123.277 134.625 123.375" stroke="#1C19B1" stroke-width="30" stroke-linecap="round"/>
<path d="M145.5 124.875L147.375 125.25" stroke="#1C19B1" stroke-width="30" stroke-linecap="round"/>
<path d="M149.625 125.25C151.347 125.285 153.148 125.971 154.854 125.438C156.191 125.02 157.577 124.54 159 124.5C161.484 124.431 164.064 124.125 166.5 124.125C171.334 124.125 173.411 119.518 176.625 117.375" stroke="#1C19B1" stroke-width="30" stroke-linecap="round"/>
<path d="M179.625 119.25C179.533 123.315 177.718 127.862 175.5 131.25C173.298 134.615 170.785 138.511 168 141.375C164.837 144.628 161.556 147.734 158.542 151.125C157.051 152.802 155.309 154.251 153.833 155.938C153.089 156.789 154.691 155.132 154.875 154.875" stroke="#1C19B1" stroke-width="30" stroke-linecap="round"/>
<path d="M180 128.625C178.044 136.886 173.378 142.86 168.479 149.5C165.664 153.316 162.396 157.389 158.458 160.104C156.887 161.188 155.476 162.764 157.125 160.125" stroke="#1C19B1" stroke-width="30" stroke-linecap="round"/>
<path d="M186.75 114.75C186.603 120.418 183.805 125.291 181.708 130.458C180.423 133.627 178.9 136.617 177.375 139.667C176.243 141.931 174.918 144.149 173.437 146.208C172.136 148.019 172.002 148.246 173.25 146.25" stroke="#1C19B1" stroke-width="30" stroke-linecap="round"/>
<path d="M193.5 106.125C193.425 109.42 192.545 113.166 191.458 116.271C190.715 118.394 190.731 120.715 189.958 122.812C189.298 124.605 188.767 126.138 187.875 127.875C186.802 129.964 185.317 132.126 184.5 134.25C183.563 136.687 181.751 138.665 180.583 141C179.462 143.243 178.323 145.479 177.188 147.75C175.076 151.974 171.735 155.942 168.458 159.292C160.59 167.335 152.192 175.325 141.458 179.542C137.096 181.256 132.858 183.089 128.417 184.688C123.94 186.299 119.982 189.219 115.542 190.833C113.726 191.494 112.144 192.531 110.229 192.771C103.694 193.588 98.0817 192.396 91.6667 191.229C89.4105 190.819 87.2315 189.296 85.0417 188.625C82.0455 187.707 79.2371 186.455 76.1667 185.833C72.0648 185.003 67.4409 184.304 63.5625 182.812C62.0858 182.245 60.6847 181.976 59.3333 181.125C58.4523 180.57 56.0909 178.988 55.5833 178.125C55.0737 177.259 54.1569 177.477 53.625 176.812C52.5945 175.524 50.7803 174.911 49.7083 173.625C47.6743 171.184 46.1747 168.297 43.875 166.125C40.6712 163.099 37.7802 159.779 36 155.625" stroke="#1C19B1" stroke-width="30" stroke-linecap="round"/>
<path d="M33.375 131.25L35.25 130.875" stroke="#1C19B1" stroke-width="30" stroke-linecap="round"/>
<path d="M33.375 128.25C32.8297 130.855 31.0781 140.011 26.7083 138.667C25.0461 138.155 23.9354 137.292 23.3333 135.667C22.9988 134.763 22.6007 133.707 22.5 132.75C22.4371 132.152 21.7802 131.764 21.75 131.25C21.6016 128.728 20.7 126.609 19.5833 124.5C19.0917 123.571 15.0563 119.597 17.25 118.5" stroke="#1C19B1" stroke-width="30" stroke-linecap="round"/>
<path d="M22.875 125.625C23.861 130.678 26.2481 135.181 27.75 140.062C28.2069 141.547 28.8006 143.141 29.4375 144.542C30.0462 145.881 29.6542 147.404 30.75 148.5C31.8823 149.632 32.9213 151.584 33.6667 153C34.431 154.452 35.2055 155.045 36.1875 156.354C39.0294 160.143 43.316 161.314 47.625 162.75" stroke="#1C19B1" stroke-width="30" stroke-linecap="round"/>
<path d="M53.625 163.875C57.6393 166.264 61.1381 169.331 65.2083 171.688C67.9049 173.249 70.7624 174.59 73.5 175.958C76.4331 177.425 78.4756 177.375 82 177.375C85.5153 177.375 89.2233 177.765 92.6667 177C98.171 175.777 103.675 174.906 109.25 174C118.861 172.438 126.767 169.646 135.458 165.229C136.108 164.899 140.052 162.088 140 162.083C137.129 161.803 133.292 163.124 130.542 163.5C115.29 165.584 99.9671 167.362 84.6667 169.042C73.9292 170.22 41.7703 173.467 52.3333 171.208C71.7439 167.057 91.8512 164.769 111.542 162.458C119.488 161.526 127.436 160.644 135.375 159.646C137.756 159.347 140.521 159.446 142.875 158.917C143.877 158.691 145.661 158.04 143.583 159.375C142.118 160.317 140.657 160.776 139.042 161.333C137.606 161.828 137.25 162.327 137.25 160.5" stroke="#1C19B1" stroke-width="30" stroke-linecap="round"/>
<path d="M102 177C100.598 177.953 99.2216 178.811 98.3333 180.292C97.6491 181.432 97.3258 182.599 96.4167 183.625C95.3019 184.883 93.7884 186.647 92.25 187.417C91.7991 187.642 90.797 186.759 90.3958 186.583C89.3805 186.139 88.313 185.575 87.25 185.271C86.1107 184.945 89.5477 184.633 90.7292 184.542C92.748 184.386 94.8088 184.5 96.8333 184.5C102.659 184.5 108.045 185.127 113.646 183.167C116.384 182.208 119.69 180.892 122.062 179.208C124.7 177.337 126.895 175.229 129.667 173.542C134.046 170.876 138.421 168.178 143.062 165.958C146.211 164.452 148.426 161.451 151.5 159.833C151.775 159.688 152.609 159.171 152.458 159.5C151.528 161.525 150.388 163.036 149.042 164.792C147.972 166.186 147.354 167.836 146.25 169.208C145.207 170.505 143.862 171.513 142.687 172.687C141.208 174.167 139.936 175.798 138.542 177.354C137.617 178.386 135.959 179.339 135.25 180.521C134.716 181.411 137.126 179.621 138 179.062C139.321 178.218 140.646 177.493 142.125 177" stroke="#1C19B1" stroke-width="30" stroke-linecap="round"/>
<path d="M95.625 132.75C92.9903 125.758 89.7818 118.704 85.9583 112.292C83.1594 107.598 79.9328 102.744 77.8125 97.6875C77.2093 96.2491 76.3048 93.8668 74.5833 93.375C73.0457 92.9357 71.6578 92.3813 71.25 90.75" stroke="#1C19B1" stroke-width="30" stroke-linecap="round"/>
<path d="M69.75 80.25C72.5781 80.856 75.4947 82.5058 78.2917 83.5417C80.8806 84.5005 81.826 86.5952 83.625 88.5C84.4578 89.3817 84.8138 90.5841 85.875 91.2083C86.914 91.8195 88.0014 93.2514 88.875 94.125C91.0394 96.2894 92.9385 98.6481 95.0417 100.875C96.5269 102.448 97.7925 105.011 99.75 106.042C101.933 107.19 104.263 108.97 106.125 110.625C107.615 111.95 110.347 113.394 112.208 114.083C114.715 115.012 116.842 117.671 119.25 118.875" stroke="#1C19B1" stroke-width="30" stroke-linecap="round"/>
<path d="M124.875 118.5C129.165 119.272 133.34 120.61 137.438 121.521C140.851 122.279 144.797 121.141 148.125 122.25" stroke="#1C19B1" stroke-width="30" stroke-linecap="round"/>
<path d="M147 122.25C150.062 121.27 152.861 121.674 156 121.5C158.148 121.381 160.632 120.012 162.667 119.333C164.538 118.709 166.448 118.305 168.292 117.667C169.443 117.268 170.762 117.212 171.875 116.729C173.88 115.86 175.785 113.905 177.75 113.25" stroke="#1C19B1" stroke-width="30" stroke-linecap="round"/>
<path d="M172.875 115.875C174.607 114.09 177.284 112.515 178.417 110.25C179.035 109.014 180.021 107.824 181.312 107.25C182.16 106.873 183.032 106.768 183.75 106.125C184.605 105.36 185.156 104.471 186 103.688C187.44 102.351 188.367 98.836 190.125 98.25" stroke="#1C19B1" stroke-width="30" stroke-linecap="round"/>
<path d="M182.25 106.5C183.882 105.465 185.665 104.043 187.042 102.667C187.41 102.298 187.686 101.446 187.792 100.958C187.858 100.651 184.396 103.008 183.917 103.333C181.947 104.672 183.053 104.762 184.5 103.958C185.418 103.448 186.069 102.32 186.938 101.625C188.165 100.643 189.162 97.9627 190.708 97.5208C191.715 97.2331 192.45 96.8797 193.333 96.375C194.338 95.8007 194.648 94.4883 195.375 94.125" stroke="#1C19B1" stroke-width="30" stroke-linecap="round"/>
<path d="M191.625 97.5C191.959 99.5866 191.144 105.638 192.208 103.813C192.557 103.216 195.396 100.173 194.917 101.25C194.144 102.988 194.333 104.692 193.688 106.5C193.028 108.347 192.781 110.393 192.354 112.312C191.77 114.942 192 117.816 192 120.562C192 123.065 191.137 126.843 189.458 128.708C188.834 129.402 187.875 131.688 187.875 132.542C187.875 133.653 186.606 134.434 186.083 135.375C184.536 138.161 183.585 141.582 181.333 143.833C179.442 145.725 177.166 148.397 176.25 150.917C175.94 151.768 175.276 152.488 174.958 153.396C174.492 154.727 174.526 155.844 173.333 156.75C172.2 157.612 169.187 159.938 168.75 161.25" stroke="#1C19B1" stroke-width="30" stroke-linecap="round"/>
<path d="M188.625 138.75C187.697 140.915 186.558 143.506 185.062 145.333C184.603 145.895 183.078 147.462 183 148.125C182.943 148.609 181.076 149.772 180.562 150C179.196 150.607 178.374 152.001 177.375 153C175.357 155.018 173.387 157.007 171.542 159.188C170.096 160.896 168.653 162.589 167.25 164.333C165.471 166.545 163.846 168.951 162.375 171.375C162.194 171.673 160.875 174.662 160.875 173.25" stroke="#1C19B1" stroke-width="30" stroke-linecap="round"/>
<path d="M181.125 151.5C180.466 153.848 179.571 157.863 177.188 159.188C175.05 160.375 172.847 161.683 170.917 163.292C168.415 165.376 165.724 167.007 162.979 168.75C161.027 169.99 159.378 171.562 157.125 172.125" stroke="#1C19B1" stroke-width="30" stroke-linecap="round"/>
<path d="M159.375 174.75C157.721 176.404 155.757 178.19 153.75 179.417C152.384 180.252 150.806 180.552 149.438 181.312C148.486 181.841 147.363 181.802 146.542 182.542C145.748 183.256 144.845 182.708 144 183.083C141.541 184.176 138.94 184.968 136.5 186.188C134.177 187.349 132.177 188.945 129.562 189.75C125.773 190.916 121.582 193.5 117.562 193.5C114.5 193.5 111.438 193.5 108.375 193.5C105.321 193.5 101.182 193.33 98.625 191.625" stroke="#1C19B1" stroke-width="30" stroke-linecap="round"/>
<path d="M103.5 195C96.5277 194.882 89.1915 194.041 82.5833 191.917C78.844 190.715 74.9998 189.603 71.2708 188.438C68.9453 187.711 65.6701 186.84 64.5 184.5" stroke="#1C19B1" stroke-width="30" stroke-linecap="round"/>
<path d="M67.125 183.375C65.682 183.058 64.0717 182.387 62.8125 181.688C62.277 181.39 60.7846 180.993 60.4583 180.667C59.6857 179.894 59.1291 178.421 58.2917 177.583C57.4545 176.746 56.2619 175.89 55.5 174.938C54.9669 174.271 53.5769 174.229 52.9583 173.542C52.3079 172.819 51.0924 171.985 50.625 171.167C49.3179 168.879 46.2901 168.907 44.5417 167.333C42.9406 165.892 41.1307 164.301 40.875 162C40.7614 160.978 39.6421 159.576 39.1667 158.625C38.289 156.87 37.1149 154.93 35.6458 153.583C35.0282 153.017 33.4783 151.201 33.375 150.375C33.2529 149.398 31.888 148.926 31.4167 148.125C30.2797 146.192 27.7876 143.058 25.6875 142.125C25.1455 141.884 24.75 141.464 24.75 140.854C24.75 140.262 25.152 141.971 25.4167 142.5C26.162 143.991 26.376 145.727 27.1875 147.188C27.7875 148.268 27.9587 149.626 28.5833 150.75C29.201 151.862 30.579 152.617 31.2083 153.75C33.5967 158.049 36.9593 161.689 39.375 165.917C40.6681 168.18 43.5065 169.803 45.1667 171.938C46.6756 173.878 49.1137 175.489 51 177.375C53.5787 179.954 56.3381 181.123 59.4375 182.792C61.2687 183.778 63.5341 184.074 65.3333 185.25C66.4778 185.998 67.6134 186.75 69 186.75" stroke="#1C19B1" stroke-width="30" stroke-linecap="round"/>
<path d="M22.875 138.75C19.8565 136.463 19.5 134.646 19.5 131.062C19.5 129.728 19.3851 129.153 18.75 128.042C18.3203 127.29 16.6261 125.128 18.0208 126.958C20.2611 129.899 22.9729 131.953 24.375 135.458C25.0055 137.035 25.9705 138.552 26.25 140.229C26.4827 141.625 26.8143 143.464 27.375 144.75C28.5451 147.434 28.5095 154.128 31.875 155.25" stroke="#1C19B1" stroke-width="30" stroke-linecap="round"/>
<path d="M23.25 139.5C24.6847 140.621 28.0385 145.081 24.375 142.792C23.6484 142.338 23.4245 140.858 23.6458 140.083C23.8561 139.347 25.6323 141.766 25.7917 142.125C26.0982 142.815 26.625 144.037 26.625 144.75C26.625 145.247 26.5958 145.754 26.625 146.25C26.6534 146.732 27.2338 146.576 27.4583 147C28.0091 148.04 27.7959 148.162 28.6875 148.875C29.3291 149.388 30.3144 149.73 31.125 150" stroke="#1C19B1" stroke-width="30" stroke-linecap="round"/>
<path d="M168.75 160.875C168.363 163.07 168.324 164.881 166.875 166.5C166.491 166.93 165.91 168.784 166.042 168.667C166.407 168.342 167.785 166.286 166.958 166.583C165.524 167.1 164.08 168.07 162.938 168.958C161.915 169.753 160.426 169.609 159.75 170.792C159.292 171.594 158.5 173.149 157.667 173.625C156.392 174.353 155.473 175.409 154.125 176.083C152.123 177.084 150.754 178.392 148.583 179.167C146.312 179.978 145.176 181.255 143.625 183C143.15 183.534 142.631 185.201 141.75 185.25C140.511 185.319 139.34 186 138.167 186C137.159 186 135.732 186.341 134.812 186.75C132.488 187.783 134.938 187.875 136.042 187.875C138.832 187.875 138.74 186.01 140.438 184.312C141.509 183.241 138.68 183.909 138.188 184.292C137.227 185.038 136.318 185.189 135.542 186.188C134.844 187.085 134.204 187.933 133.5 188.812C133.081 189.337 131.585 188.957 130.958 189.458C127.593 192.151 122.191 192.75 117.938 192.75C116.144 192.75 113.273 192.8 111.521 193.333C110.322 193.698 106.622 194.25 107.875 194.25C109.367 194.25 110.678 194.027 112.125 193.875C112.801 193.804 114.531 193.126 115.042 192.667C116.816 191.07 113.178 193.329 112.708 193.5C110.79 194.197 108.572 194.25 106.5 194.25" stroke="#1C19B1" stroke-width="30" stroke-linecap="round"/>
<path d="M129.375 191.25C133.877 191.16 134.964 188.279 137.708 186.083C138.542 185.417 140.686 185.431 141.75 184.958C142.914 184.441 144.013 184.018 145.312 183.729C145.813 183.618 148.754 181.267 148.854 180.917C149.165 179.829 150.268 179.055 151.208 178.208C152.205 177.311 153.794 177.331 154.875 176.25C155.864 175.261 156.187 173.563 157.688 173.229C159.989 172.718 162.188 171.337 163.312 169.313C164.729 166.762 167.783 165.05 169.792 163.042C170.207 162.626 171.15 161.943 171.375 161.438C171.818 160.441 168.334 163.172 167.958 163.625C167.589 164.07 166.875 164.588 166.875 165.188C166.875 166.182 168.346 165.762 168.729 165.188C170.106 163.122 169.895 164.206 169.125 165.938C168.881 166.487 168.368 167.135 167.917 167.542C166.898 168.458 167.706 168.131 168 167.25" stroke="#1C19B1" stroke-width="30" stroke-linecap="round"/>
<path d="M190.5 133.125C190.5 127.433 191.093 121.98 193.583 117C194.011 116.144 193.771 114.995 193.208 114.292C192.776 113.751 193.5 111.906 193.5 111.188C193.5 110.716 194.111 109.011 194.438 108.75C194.795 108.464 193.672 106.266 193.5 105.75" stroke="#1C19B1" stroke-width="30" stroke-linecap="round"/>
<path d="M122.625 118.5C121.306 118.243 119.681 118.431 118.417 118.042C117.606 117.792 116.769 117.229 116.042 117.021C114.729 116.646 113.168 115.621 111.938 114.938C110.295 114.025 108.524 113.053 107.062 111.917C105.595 110.775 104.45 108.501 102.917 107.625C101.552 106.845 100.588 105.414 99.2083 104.625C97.9237 103.891 97.5331 101.257 96.2083 100.5C94.9091 99.7576 95.0388 97.52 93.5833 97.1042C92.3156 96.742 91.2454 95.3463 90.1875 94.5C89.0879 93.6203 88.0051 92.3384 87 91.3333C86.6682 91.0015 85.6813 89.3822 85.2917 89.2708C84.4791 89.0387 83.5391 88.312 82.9583 87.6667C81.8077 86.3882 80.874 83.7363 79.875 82.2083C78.9738 80.83 77.8019 80.25 76.125 80.25C72.1997 80.25 66.4219 77.7036 63.0833 80.7083C62.0995 81.5938 58.6153 80.938 57.375 81C56.5206 81.0427 52.3488 81.3025 52.125 81.75" stroke="#1C19B1" stroke-width="30" stroke-linecap="round"/>
<path d="M54.375 79.875C52.9015 80.7872 51.7043 81.597 50.8125 83.0833C50.2664 83.9936 49.7889 85.635 48.5833 85.8542C47.5199 86.0475 45.7171 86.1963 44.9167 86.9167C44.0125 87.7304 42.7778 88.3325 41.8125 89.0833C40.6105 90.0183 39.8887 90.9863 38.8125 92.0625C37.8562 93.0188 36.1699 94.181 36 95.625C35.9398 96.1372 35.4676 98.3009 35.0625 98.625C34.3739 99.1759 33.5355 101.186 33.0833 102C32.2914 103.425 31.2743 104.666 30.375 106.042C28.9709 108.189 28.1297 110.51 26.25 112.5C25.4039 113.396 24.6937 114.431 23.8125 115.312C23.2013 115.924 22.1622 116.445 21.75 117.167C21.5153 117.577 20.6072 117.491 20.25 117.938C20.1245 118.094 17.2038 119.25 16.875 119.25C14.2002 119.25 18.0723 117.197 18.5417 116.812C20.5587 115.162 21.2264 111.488 24.75 113.25" stroke="#1C19B1" stroke-width="30" stroke-linecap="round"/>
<path d="M30 105.75C30.6623 104.153 31.6689 103.87 32.25 102.562C32.5551 101.876 32.9739 100.596 33.5625 100.125C34.0127 99.7648 33.9156 98.9926 34.4167 98.5417C35.1007 97.9261 35.7648 96.9852 36.375 96.375" stroke="#1C19B1" stroke-width="30" stroke-linecap="round"/>
<path d="M153.375 70.125C149.529 73.8272 145.499 78.7491 144.187 84.0625C143.408 87.2188 145.456 90.5815 148.979 90.2292C155.035 89.6236 157.445 83.2098 158.146 78.0417C158.692 74.0138 158.528 68.4809 153.042 71.125C149.224 72.9649 146.153 76.4919 143.458 79.6458C140.41 83.2129 137.167 87.171 135.458 91.6042C133.279 97.2594 140.121 97.1332 143.958 96.3542C150.983 94.9281 158.474 90.5198 159.562 82.8125C160.203 78.2737 156.489 75.5674 152.312 76.2708C144.361 77.61 137.932 83.6699 134.458 90.6875C133.969 91.6763 132.424 94.0868 134.083 94.8333C136.382 95.8679 139.292 94.9804 141.458 94.0833C147.196 91.7075 156.552 85.7151 156.958 78.7083C157.299 72.8249 148.872 74.9249 145.75 75.9792C140.82 77.6438 136.37 80.4533 132.312 83.6667C129.478 85.9112 125.752 88.684 124.083 92.0208C121.962 96.2629 136.828 91.816 137.937 91.375C143.917 88.9994 151.035 84.0796 150.417 76.75C149.942 71.1159 144.654 69.1871 139.646 69.5417C132.685 70.0345 127.697 75.2748 123.875 80.625C123.483 81.1733 120.922 83.9402 122.375 84.75C124.178 85.7546 127.068 85.4796 128.958 85.0833C136.041 83.5987 143.292 77.5801 145.083 70.375C146.301 65.4766 142.442 61.6425 137.667 61.6667C128.646 61.7122 120.679 69.1839 114.667 75.0833C114.169 75.5714 110.532 78.4904 110.958 79.7083C111.273 80.6085 114.379 80.2038 114.833 80.1667C122.888 79.5091 130.177 74.7828 134.5 68C136.608 64.6927 136.625 60.237 131.875 59.7917C124.581 59.1078 116.958 64.417 112.042 69.25C110.789 70.4819 107.218 74.4759 110.708 75.375C116.299 76.8151 122.532 70.9871 126.458 67.9167C127.682 66.9594 136.47 59.6728 131.667 57.9167C125.718 55.742 116.875 61.5564 112.417 64.7917C110.702 66.0356 106.666 68.972 108.458 71.625C109.673 73.4229 112.129 74.6095 112.875 71.625" stroke="#6FB7EB" stroke-width="30" stroke-linecap="round"/>
<path d="M178.5 85.875C173.254 86.7794 173.607 90.2271 170.625 93.375C169.266 94.8098 168.47 96.7201 167.229 98.2708C166.031 99.7688 165.341 101.996 163.5 102.917C161.772 103.781 159.953 103.779 158.167 104.333C156.155 104.958 154.262 105.992 152.229 106.5C150.247 106.995 148.624 107.625 146.542 107.625C144.05 107.625 141.757 107.008 139.292 106.875C137.202 106.762 134.994 105.356 132.979 104.833C131.146 104.358 129.217 103.855 127.5 103.042C125.299 101.999 122.657 101.62 120.375 100.479C117.935 99.2592 115.946 97.5047 113.604 96.1875C109.955 94.1346 108.807 90.4323 105.938 87.5625C104.653 86.2784 103.568 84.6879 102.458 83.25C101.212 81.634 100.806 79.9589 99.75 78.375" stroke="#6FB7EB" stroke-width="30" stroke-linecap="round"/>
<path d="M100.5 76.5C104.337 78.7644 107.519 81.5023 110.667 84.625C113.118 87.0567 115.45 90.0119 118.042 92.25C120.057 93.9907 121.952 95.005 124.208 96.375C125.435 97.1196 127.32 97.2748 128.708 97.5833C130.918 98.0743 133.056 98.8999 135.292 99.375C140.399 100.46 148.229 101.302 153 98.9167C156.094 97.3697 159.081 95.8663 162.292 94.5C165.355 93.1965 169.067 91.548 171.458 89.3333C172.379 88.4809 174.221 88.0537 175.333 87.25C176.229 86.603 177.094 86.1552 177.667 85.125C178.456 83.7048 180.811 83.1281 181.5 81.75" stroke="#6FB7EB" stroke-width="30" stroke-linecap="round"/>
<path d="M179.25 83.625C176.046 86.6804 172.503 88.72 170.333 92.625C168.835 95.3221 168.467 97.5639 165.75 99.375" stroke="#6FB7EB" stroke-width="30" stroke-linecap="round"/>
<path d="M106.875 80.25C99.967 77.9473 93.52 73.4414 88.125 68.6458C83.955 64.9392 78.221 63.75 72.7708 63.75C63.1642 63.75 53.2265 64.9909 44.625 69.2917C43.1635 70.0224 41.9181 70.7886 40.6667 71.8125C39.5273 72.7447 34.2259 73.6155 33.7708 75.2083C33.4033 76.4945 30.7914 77.504 30.0208 78.9167C29.3926 80.0683 27.5624 82.0625 26.4375 82.6875C24.4763 83.777 15.3182 97.2841 16.5 97.875" stroke="#6FB7EB" stroke-width="30" stroke-linecap="round"/>
<path d="M20.625 82.875C22.8775 77.8695 25.591 74.167 29.1667 70.125C30.7756 68.3062 33.1565 66.8422 34.5 64.7917C37.3398 60.4573 40.9367 56.5044 45 53.1667C47.933 50.7574 50.6681 48.5029 53.9167 46.5833C56.1613 45.2569 58.5776 44.5116 60.8333 43.2083C63.297 41.7849 66.5587 39.7791 69.375 39.2917C69.6292 39.2477 74.45 38.0583 73.7917 39.375C72.4667 42.0249 68.3684 44.0181 66.3542 46.1667C62.7587 50.0019 58.7479 53.4348 55 57.125C53.5692 58.5338 51.6304 59.4689 49.75 60.1458C47.5227 60.9476 52.2035 56.9457 52.6667 56.625C54.8524 55.1118 57.2134 53.8651 59.3958 52.3542C59.613 52.2038 60.0389 51.9889 59.4583 52.4375C57.8062 53.7142 56.0926 54.8588 54.375 56.0417C53.2371 56.8253 52.2197 57.7365 51.1667 58.625C51.0538 58.7203 54.4309 57.3255 54.9167 57.1042C59.3426 55.0879 63.8708 53.7709 68.4167 52.125C71.1756 51.1261 73.6265 49.594 76.5 48.8333C77.7674 48.4978 80.5837 48.0078 81.2917 46.875C82.833 44.4089 88.2195 46.3109 89.25 44.25" stroke="#6FB7EB" stroke-width="30" stroke-linecap="round"/>
<path d="M88.875 45C88.248 46.0784 83.1556 55.7389 84.5833 57.1667C85.4739 58.0572 85.9971 58.3343 86.625 59.625C88.211 62.8851 82.728 58.0587 82.1667 57.5833C79.2778 55.1371 74.8693 50.6667 70.7708 50.6667C68.439 50.6667 70.2865 52.0779 71.1042 52.5625C71.8287 52.9919 77.0554 55.9077 75.2708 56.6042C72.4901 57.6893 69.0092 57.4503 66.0833 57.75C62.5843 58.1084 59.4495 58.9775 56.3125 60.5833C52.5596 62.5044 49.1929 65.4337 45.1667 66.75C44.1635 67.078 43.1913 67.0484 42.1875 67.3125C38.0745 68.3949 49.8761 63.3956 54.0625 62.6458C60.3976 61.5112 66.6082 60.5591 72.8333 58.9583C76.7207 57.9587 81.2656 57.982 85.2083 58.5C90.2871 59.1673 95.7485 60.2053 100.625 61.7917C102.529 62.4111 104.733 63.5912 106.333 64.7917C110.998 68.2901 97.4572 66.803 96.25 66.7708C95.6825 66.7557 89.4933 66.2927 91.8333 67.2083C95.4704 68.6315 98.952 70.0663 102.958 69.75C103.432 69.7126 98.7317 63.5944 98.1042 62.875C97.1313 61.7597 96.279 60.4742 95.25 59.4167C94.7842 58.9379 94.0098 58.7566 94.9792 58.4583C97.5776 57.6588 99.9707 56.9292 102.708 56.625C103.674 56.5177 105.967 56.1358 103.688 55.8958C101.765 55.6935 104.92 56.0922 105.375 56.1667C107.359 56.4914 109.309 56.9469 111.292 57.2917C113.576 57.689 115.794 58.4334 118.125 58.5C119.971 58.5528 121.959 59.0979 123.771 59.4375C127.198 60.0802 130.604 60.4463 134.042 60.9583C137.703 61.5037 141.845 62.1555 145.208 63.6875C148.694 65.2754 152.076 67.1937 155.5 68.9167C156.799 69.5703 158.357 70.2146 159.542 71.0833C162.379 73.1639 164.077 76.5289 166.792 78.75C167.989 79.7296 169.173 80.8493 170.438 81.7292C170.943 82.0809 175.417 83.801 175.417 83C175.417 81.71 173.047 80.9786 172.042 81C167.463 81.0974 163.813 85.4705 161.125 88.625C161 88.7715 158.496 91.703 159.333 91.5833C160.989 91.3468 162.731 90.1082 164.167 89.3333C166.804 87.9098 168.848 86.226 170.917 84.0833C172.654 82.2837 174.588 82.875 177.146 82.875C179.213 82.875 180.185 81.5856 182.25 81.0833C182.672 80.9807 187.616 81.1942 186.188 80.0833C184.404 78.6963 182.763 76.4002 181.688 74.25C181.237 73.3486 180.473 73.4132 180.083 72.75C179.512 71.7793 179.005 70.7605 178.5 69.75C178.018 68.7865 177.295 67.7818 177 66.75C176.726 65.7909 176.464 64.4662 176.063 63.5833C174.929 61.0888 174.003 58.1282 172.042 56.1667C169.131 53.2557 166.66 50.8886 163.125 48.6667C159.904 46.6418 157.198 44.0318 154.125 41.8125C151.417 39.8564 147.564 37.9833 145.333 35.6042C143.411 33.5536 140.98 31.945 138.667 30.375C137.155 29.3494 135.904 28.3008 134.25 27.4583C133.161 26.9036 131.265 26.2654 130.5 25.5" stroke="#6FB7EB" stroke-width="30" stroke-linecap="round"/>
<path d="M182.25 73.125C183.95 74.2251 186.565 75.2316 188.021 76.6875C188.304 76.9702 187.527 77.2768 187.312 77.2292C186.779 77.1106 186.346 76.6394 185.812 76.5208C183.309 75.9644 181.881 72.0032 179.625 70.875" stroke="#6FB7EB" stroke-width="30" stroke-linecap="round"/>
<path d="M186 75.75C183.501 73.8569 184.583 73.3001 184.104 70.6667C183.736 68.6426 183.734 66.8372 183.083 64.9583C182.809 64.1654 181.766 63.2363 181.125 62.7083C179.749 61.5751 178.866 59.9906 177.604 58.7292C176.226 57.3508 174.505 56.2382 173.229 54.75C168.588 49.335 164.532 43.6022 158.625 39.2917C156.062 37.4214 152.957 36.4141 150.208 34.875C146.146 32.6003 141.925 30.4619 137.792 28.3125C134.674 26.6914 131.78 24.1705 128.542 22.875C124.799 21.378 121.044 20.7408 117.208 19.6667C114.302 18.8528 111.107 17.6234 108.375 16.3333C105.905 15.1668 103.286 15.375 100.583 15.375C96.1044 15.375 92.2476 16.6464 87.9375 17.6042C86.2657 17.9757 84.8965 18.3831 83.25 19.0417C82.1735 19.4722 79.0875 19.1718 78.375 20.0625C77.7807 20.8054 76.3364 20.9325 75.5 21.0833C72.5448 21.6162 70.0956 23.2093 67.5625 24.7292C66.1426 25.5811 64.9866 26.4855 64.0417 27.6667C62.6878 29.359 60.6144 30.4108 58.7083 31.5C56.5336 32.7427 54.662 34.6309 52.6875 36.1667C50.4751 37.8874 47.8124 39.0102 45.375 40.3333C43.4597 41.3731 41.6766 43.0734 40.125 44.625C38.7379 46.0121 37.4567 48.008 35.8125 49.1042C34.7377 49.8207 32.1771 52.9217 31.8958 54.1875C30.8131 59.0598 28.8631 64.2021 25.6875 68.0833C24.4194 69.6332 23.738 71.7233 22.875 73.5C21.9681 75.3672 20.5494 77.1511 19.1667 78.6875C17.959 80.0293 18.0555 79.7639 18.75 78.375C19.6382 76.5985 20.2947 74.7672 21.2917 73.0417C22.1463 71.5624 23.3446 70.0446 23.9792 68.4583C24.8562 66.2658 25.8512 63.6177 27.1875 61.6875C28.4759 59.8265 29.2799 56.5773 31.2083 55.2917C33.2704 53.9169 36.179 53.4261 38.4167 52.3333C41.7214 50.7194 45.1632 49.8424 48.75 49.125" stroke="#6FB7EB" stroke-width="30" stroke-linecap="round"/>
<path d="M69 40.5C70.7295 38.7704 70.9371 37.4814 72.0833 35.5417C72.8214 34.2926 74.661 32.7442 74.9792 31.3125C75.1232 30.6644 73.9586 29.7045 75.2083 29.25C76.0879 28.9302 76.9396 28.5795 77.7708 28.1458C79.3123 27.3416 74.5367 31.7318 73.9583 32.1667C71.4444 34.057 63.8035 39.5477 66.5417 38C69.199 36.498 71.4827 34.1961 73.9167 32.375C74.927 31.6191 76.5891 30.0143 77.8542 29.625C81.672 28.4503 85.6265 28.125 89.625 28.125" stroke="#6FB7EB" stroke-width="30" stroke-linecap="round"/>
<path d="M82.125 29.25C80.8026 30.8557 79.034 32.4669 78.5625 34.5417C78.0047 36.996 78.375 39.8267 78.375 42.3333C78.375 43.7859 79.4185 44.1648 80.5417 43.0417C82.2884 41.2949 80.6603 38.166 80.625 36.0833C80.5889 33.9512 82.1637 37.5247 82.6875 38.25C83.2369 39.0108 85.7015 41.2724 83.625 39.9375C82.3467 39.1157 83.9479 38.5594 84.8333 38.625C86.4322 38.7434 86.625 39.9984 86.625 41.25" stroke="#6FB7EB" stroke-width="30" stroke-linecap="round"/>
<path d="M159 69.375C161.976 69.9811 164.662 71.3673 167.542 72.2917C168.681 72.6575 170.201 72.5658 171.187 73.3333C172.666 74.483 171.545 74.6605 170.25 73.7917C164.539 69.9593 160.513 63.5855 155.771 58.7083C153.594 56.4696 151.319 54.6925 149.333 52.2917C148.505 51.29 147.785 50.8394 146.812 50.0833C145.356 48.9509 147.27 49.7598 148.333 50.0417C154.202 51.5978 159.477 53.4117 164.375 57.125C165.084 57.6622 170.182 61.4987 169.812 62.7917C169.48 63.9552 164.531 61.8311 164 61.5417C159.563 59.1216 156.508 55.2015 153.25 51.4583C152.891 51.0458 148.853 46.8646 149.5 48.4167C150.73 51.3681 152.066 54.0291 152.229 57.2917C152.579 64.2932 136.64 50.9044 134.937 49.6042C133.896 48.8086 132.144 46.3968 132.021 48.8542C131.94 50.4807 131.974 52.1399 132.667 53.625C133.441 55.284 130.818 50.4598 129.771 48.9583C128.787 47.5482 127.799 44.9724 126.5 47.2917C125.808 48.5277 124.5 52.4583 124.5 51.0417C124.5 47.8373 126.861 45.4945 127.062 42.4792C127.112 41.7346 126.839 41.6006 126.979 42.5C127.209 43.9678 127.48 45.3825 127.5 46.875C127.511 47.6839 127.62 48.6401 127.333 49.4167C127.236 49.6805 126.417 51.1588 126.417 50.125C126.417 47.3388 127.722 44.7124 128.708 42.2917C130.031 39.0441 133.477 41.2772 135.583 42.375C138.499 43.8942 140.73 46.6046 143.021 48.8958C144.145 50.02 146.347 51.1405 143.542 50.25C138.864 48.7651 138.666 42.9438 135 40.5" stroke="#6FB7EB" stroke-width="30" stroke-linecap="round"/>
<path d="M97.125 79.125C97.4146 80.78 98.5091 83.1719 99.9583 84C101.417 84.8333 103.058 85.5215 104.333 86.5417C105.765 87.6871 107.286 88.5162 108.938 89.25C111.379 90.335 112.025 94.4666 114.375 95.25" stroke="#6FB7EB" stroke-width="30" stroke-linecap="round"/>
<path d="M95.25 78.75C94.0985 77.9033 93.1481 77.4052 92.5417 76.125C92.2116 75.4282 92.0628 75.1459 91.3125 74.9792C90.6108 74.8232 89.571 73.145 89.25 72.5833C88.7305 71.6743 87.7003 70.222 86.7917 69.6667C85.5876 68.9308 85.9388 67.125 84 67.125" stroke="#6FB7EB" stroke-width="30" stroke-linecap="round"/>
<path d="M84.75 68.25C84.053 67.961 82.6027 67.6742 82.5 66.75C82.4656 66.4404 82.2828 65.9254 82.0417 65.7083C81.6681 65.3721 80.1824 65.625 79.6875 65.625C78.1758 65.625 76.7288 65.56 75.375 64.9583C72.7785 63.8043 68.3596 65.25 65.625 65.25C63.8194 65.25 62.0139 65.25 60.2083 65.25C58.6159 65.25 57.0703 66 55.5 66C52.5562 66 49.0231 65.4885 46.5 66.75" stroke="#6FB7EB" stroke-width="30" stroke-linecap="round"/>
<path d="M52.875 35.625C50.2395 36.6265 49.8226 38.0443 48.5625 40.3125C47.9876 41.3473 47.625 40.9194 47.625 39.75C47.625 37.9319 48.5911 36.0264 50.1667 35.5417C51.4671 35.1415 53.3202 35.0474 54.0833 33.75C55.4305 31.4598 57.2193 32.0169 59.0625 30.5833C60.0742 29.7964 60.5426 29.1662 61.7083 28.5C62.2864 28.1697 62.8286 27.9559 63.375 27.6667C64.9815 26.8162 62.0838 28.3496 61.5 28.875C60.2591 29.9918 58.4333 30.4917 57 31.2083C55.9922 31.7122 54.8342 32.6813 53.7917 32.9792C52.0484 33.4772 51.5708 34.4065 50.4375 35.7917C49.5928 36.8241 48.6215 37.7456 47.7917 38.8125C45.3844 41.9076 41.7075 44.1046 38.25 45.8333C37.1278 46.3944 37.353 46.6217 38.4167 45.7708C39.5097 44.8964 40.848 44.2487 42 43.4167C44.1446 41.8678 44.8358 39.9879 46.3333 38.0625C46.4854 37.867 47.5469 36.4618 47.5417 36.4583C47.0684 36.1428 44.4708 38.4462 44.0625 38.7917C43.5966 39.1859 39.2011 41.625 42 41.625" stroke="#6FB7EB" stroke-width="30" stroke-linecap="round"/>
<path d="M52.5 34.5C54.1705 32.3797 56.3412 30.2038 58.6667 28.875C60.0527 28.083 61.4132 27.5808 63 27.3542C64.8271 27.0932 65.8642 25.9407 67.2917 25.125C67.7127 24.8844 68.3946 23.5723 68 23.8542C67.124 24.4799 66.2111 25.1028 65.25 25.5833C64.5962 25.9102 61.5109 27.6804 62.625 26.625C64.1075 25.2205 66.3909 24.369 67.9583 22.9583C69.1457 21.8897 70.1368 21.4961 71.625 21" stroke="#6FB7EB" stroke-width="30" stroke-linecap="round"/>
<path d="M182.625 67.5C181.842 64.2107 179.28 61.5655 178.875 58.125C178.613 55.8988 174.723 54.9106 173.625 53.1667C172.979 52.1406 170.394 47.2617 173.167 48.0833C174.272 48.4107 175.232 49.3597 175.958 50.1667C176.346 50.5974 177.788 51.375 177.208 51.375C174.35 51.375 171.869 47.5592 170.25 45.75C168.707 44.0254 167.446 42.1961 165.75 40.5C165.193 39.9434 164.322 39.0914 163.5 39C162.224 38.8582 162.27 37.9363 161.542 37.2083C160.069 35.7357 157.785 34.2687 156.75 32.4583C156.09 31.304 151.779 29.1244 150.562 28.8542C149.704 28.6634 145.685 26.7623 145.125 26.0625C144.112 24.7963 141.739 24.0794 140.625 22.6875C139.912 21.7964 137.716 21.17 136.667 20.9792C135.444 20.7569 134.405 20.0532 133.146 19.8958C132.034 19.7568 131.337 19.8816 130.312 19.3125C128.558 18.3376 126.775 18.3862 125.062 17.625C120.647 15.6627 116.736 17.25 112.125 17.25" stroke="#6FB7EB" stroke-width="30" stroke-linecap="round"/>
<path d="M181.875 60.375C179.529 59.8294 177.421 58.5937 175.958 56.625C175.156 55.5445 176.448 55.9213 177 56.1667C178.157 56.6808 179.372 56.5259 180.562 57.1875C181.675 57.8058 180.844 59.7189 181.875 60.75C183.018 61.8927 184.5 62.7655 184.5 64.6875C184.5 65.638 185.014 67.111 185.437 68.0417C185.983 69.2428 185.54 71.0499 186.292 72.0833C187.415 73.6285 187.051 75.4655 188.812 76.875C189.684 77.5725 189.75 79.5892 189.75 80.625" stroke="#6FB7EB" stroke-width="30" stroke-linecap="round"/>
<path d="M128.625 31.125C126.319 35.2565 129.234 39.8429 130.625 43.9167C130.745 44.2671 131.422 48.2201 130.875 46.4167C130.313 44.5649 129.984 42.6404 129.583 40.75C129.4 39.8836 127.717 36.4969 127.958 35.8333C128.434 34.5263 130.666 34.6832 131.625 34.875" stroke="#6FB7EB" stroke-width="30" stroke-linecap="round"/>
<path d="M120.284 42.533C120.137 42.9654 119.905 43.4147 119.794 43.8576C119.724 44.1387 119.895 44.447 119.895 44.7358C119.895 44.928 120.07 45.1873 119.967 45.3549C119.78 45.6597 119.425 45.8155 119.247 46.1612C118.457 47.7003 118.47 49.5956 118.47 51.2866C118.47 51.4776 118.437 51.7334 118.276 51.8625C118.104 51.9998 118.211 51.2898 118.211 51.1426C118.211 49.9593 118.47 48.7779 118.47 47.6153C118.47 47.5085 117.593 46.9298 117.433 46.7083C117.117 46.2688 116.736 45.9946 116.649 45.3837C116.595 45.006 116.693 43.1809 116.202 43.1809C115.614 43.1809 116.706 41.9789 116.85 41.8348C117.344 41.3409 118.079 41.1488 118.672 40.8197C119.134 40.5628 119.725 40.1239 120.154 39.7831C120.456 39.5433 120.658 39.1792 120.932 38.9049C121.227 38.6095 121.621 38.4356 121.897 38.1346C122.672 37.2891 123.542 36.2587 123.912 35.1472" stroke="#6FB7EB" stroke-width="19" stroke-linecap="round"/>
<path d="M123.653 33.074C123.524 32.7794 123.41 32.3891 123.063 32.2965C122.83 32.2344 122.602 32.1584 122.516 31.9078C122.412 31.6064 122.442 31.1104 122.228 30.8712C121.614 30.1858 120.928 29.4702 120.543 28.6036C120.304 28.0657 119.995 27.5577 119.773 26.9911C119.77 26.9827 119.367 25.8116 119.463 25.8465C120.348 26.1684 121.328 27.0434 121.904 27.7686C122.218 28.1642 122.488 28.6124 122.847 28.9707C123.229 29.3529 123.006 28.9247 122.818 28.7404C121.527 27.4723 118.64 25.4011 116.627 26.2065C115.594 26.6199 114.391 28.0406 115.043 29.2515C115.27 29.6724 115.497 30.0416 115.799 30.4105C116.043 30.7082 116.27 30.5718 116.649 30.6192C117.555 30.7325 118.454 30.7416 119.377 30.7416" stroke="#6FB7EB" stroke-width="19" stroke-linecap="round"/>
<path d="M131.946 36.9613C132.808 37.5895 133.571 38.3316 134.422 38.9697C135.738 39.9566 137.182 40.6179 138.669 41.2949C141.918 42.7733 145.132 44.3339 148.359 45.8588C149.539 46.4163 150.702 47.0795 151.915 47.5649C151.939 47.5745 151.357 47.5925 151.181 47.6513C149.868 48.089 148.491 46.8907 147.466 46.2619C146.554 45.7021 145.534 45.4228 144.903 44.4767" stroke="#6FB7EB" stroke-width="19" stroke-linecap="round"/>
<path d="M142.441 43.3105C143.809 44.2538 144.971 45.2096 146.206 46.2907C146.884 46.8839 147.774 47.2607 148.431 47.8744C149.028 48.4323 149.692 48.8822 150.54 48.8822C150.946 48.8822 150.952 48.7024 151.001 48.3136C151.114 47.4054 151.386 46.5469 151.641 45.6716C151.865 44.9072 151.996 44.5132 151.569 43.8144C151.509 43.7153 151.158 42.9686 151.051 43.0369C150.682 43.272 150.268 44.2071 150.115 44.6062C149.906 45.1528 149.236 47.6116 150.022 47.9608C150.881 48.3426 151.786 46.4399 152.03 45.902" stroke="#6FB7EB" stroke-width="19" stroke-linecap="round"/>
<path d="M114.971 23.8741C114.2 24.4636 113.093 26.0072 112.056 25.6882C110.803 25.3026 111.141 24.3658 111.343 23.3558" stroke="#6FB7EB" stroke-width="19" stroke-linecap="round"/>
<path d="M89.8336 27.8909C90.6594 26.8511 91.9245 26.376 92.8427 25.4578C93.4774 24.8231 94.0294 24.063 94.8295 23.6149C95.9608 22.9814 97.4837 22.5783 98.7744 22.5783C98.9754 22.5783 99.6775 22.4571 99.6454 22.7943C99.5739 23.5458 98.6587 24.3752 98.3857 25.1123C98.1928 25.6331 97.9623 26.1138 97.709 26.5952C97.4583 27.0714 96.9269 27.3183 96.7012 27.8262C96.5383 28.1925 96.1973 28.5808 96.1973 28.9923C96.1973 29.651 97.3291 29.4556 97.6802 29.4459C98.6026 29.4202 98.9602 28.1953 99.3647 27.5598C99.8084 26.8625 99.6062 25.8806 100.07 25.1267C100.25 24.8336 100.55 24.4643 100.588 24.1332C100.629 23.7902 100.893 22.9775 101.042 22.6503C101.563 21.5037 102.156 20.7547 103.18 19.9868" stroke="#6FB7EB" stroke-width="19" stroke-linecap="round"/>
<path d="M111.084 21.4121C110.989 21.8437 110.781 22.2253 110.688 22.6431C110.619 22.9564 110.28 22.8863 110.148 23.0966C110.025 23.2946 109.642 23.2603 109.464 23.1614C109.289 23.0642 109.181 22.5951 109.04 22.7367C109.037 22.739 109.483 23.3162 109.529 23.4206C109.631 23.6488 109.775 24.0154 109.788 24.2628C109.819 24.8466 110.154 24.9085 110.508 25.3642C110.941 25.9204 111.602 26.2653 111.602 27.0487C111.602 27.6488 110.955 27.8738 110.955 28.3445C110.955 28.5958 110.81 28.7878 110.825 29.0571C110.839 29.311 111.145 29.4322 111.206 29.6474C111.261 29.8368 111.912 30.378 112.121 30.4825" stroke="#6FB7EB" stroke-width="19" stroke-linecap="round"/>
<path d="M89.9632 52.7695C89.9697 53.0305 90.2 53.6706 90.3447 53.4534C90.6071 53.0599 90.2769 52.1795 90.5103 51.6753C90.8275 50.9902 91.3034 50.4553 91.6189 49.7893C91.8656 49.2684 92.2956 48.9488 92.2956 48.3351C92.2956 47.8734 92.4252 47.517 92.4252 47.0682C92.4252 46.1317 93.073 45.5189 93.073 44.6062C93.073 43.9702 93.531 43.1008 93.9513 42.6338C94.1537 42.4089 94.5057 41.7556 93.9801 41.7556C93.5219 41.7556 93.2404 41.4142 92.8139 41.3668C91.7783 41.2518 91.3918 39.9832 90.6111 39.524C90.3528 39.3721 90.1373 38.8133 89.8336 38.7753C89.512 38.7351 89.0852 38.3163 88.797 38.1562C88.228 37.8401 87.7551 37.6566 87.2421 37.2492C86.7497 36.8582 86.4164 35.8654 85.8168 35.6655" stroke="#6FB7EB" stroke-width="19" stroke-linecap="round"/>
<path d="M92.2956 53.9357C91.767 54.0203 91.2712 54.0505 90.7407 54.0653C90.4563 54.0732 90.0575 54.3208 89.7905 54.1301C89.4467 53.8845 90.6713 53.9945 91.0574 54.1661C91.3796 54.3093 91.8741 54.3244 92.2308 54.3244C92.3796 54.3244 93.115 53.9357 92.6843 53.9357" stroke="#6FB7EB" stroke-width="19" stroke-linecap="round"/>
<path d="M103.31 51.3442C103.537 51.3442 104.207 51.1827 104.217 51.5314C104.235 52.1903 104.194 52.8192 104.094 53.4678C103.966 54.3014 104.094 53.2929 103.929 52.8991C103.623 52.1731 102.838 52.7426 102.287 52.9567C101.48 53.2708 100.599 53.4317 99.8182 53.8709C98.7806 54.4546 99.8048 54.1358 100.358 53.9357C101.079 53.6751 101.874 53.7695 102.597 53.547C103.495 53.2706 104.196 52.5306 105.124 52.28C105.837 52.0873 106.083 52.0492 106.808 52.1216C107.312 52.1721 108.649 52.8997 108.982 53.3166C109.216 53.6093 109.172 54.0828 109.472 54.382C109.618 54.5289 109.873 54.528 109.371 54.4252C108.767 54.3016 108.252 53.9204 107.73 53.6118C106.72 53.0151 105.726 52.0587 105.052 51.0778C104.933 50.9051 104.208 50.1376 104.346 50.2068C104.764 50.4158 104.64 51.4836 104.735 51.8625" stroke="#6FB7EB" stroke-width="19" stroke-linecap="round"/>
<path d="M113.805 42.1443C114.332 41.6176 114.516 41.3744 115.166 41.2301C115.497 41.1563 115.66 40.9843 115.778 40.719C116.08 40.0392 116.817 39.8471 117.174 39.2216C117.235 39.1151 117.345 38.9193 117.491 38.9193C117.657 38.9193 117.064 39.6054 117.016 39.6536C116.459 40.2101 115.948 40.6415 115.231 40.9205C114.418 41.2367 114.01 41.6808 113.416 42.2739" stroke="#6FB7EB" stroke-width="10" stroke-linecap="round"/>
<path d="M99.1631 29.3163C99.2187 29.6011 99.8222 31.0616 99.523 31.3607C99.3091 31.5746 98.0233 31.3811 97.7378 31.3895C97.1569 31.4066 96.6211 31.7467 96.0533 31.7782C95.4405 31.8123 95.1086 31.5179 94.5632 31.3967C94.0311 31.2785 93.5205 31.2599 92.9435 31.2599C92.7344 31.2599 91.1836 31.2997 91.3382 31.4543C91.6318 31.748 92.359 31.7782 92.7491 31.7782C93.5393 31.7782 94.121 31.9754 94.8871 32.1669" stroke="#6FB7EB" stroke-width="10" stroke-linecap="round"/>
<path d="M108.233 25.5586C108.42 25.9981 108.548 26.0174 108.809 26.2784C108.874 26.3428 109.006 26.5049 109.011 26.5952C109.034 26.9831 109.307 27.2611 109.4 27.6318" stroke="#6FB7EB" stroke-width="10" stroke-linecap="round"/>
<path d="M110.825 53.2878C109.089 52.7211 108.169 51.6172 107.298 50.0484C107.162 49.8041 106.815 48.7527 106.614 48.7527C106.196 48.7527 105.608 48.4119 105.253 48.2344" stroke="#6FB7EB" stroke-width="10" stroke-linecap="round"/>
<path d="M70.7335 149.078C64.6762 149.078 60.0562 147.692 56.8735 144.92C53.7935 142.148 51.7402 137.887 50.7135 132.138C49.6868 126.286 49.3275 118.843 49.6355 109.808L50.5595 86.708H35.4675V77.622H50.8675L51.4835 59.604L63.0335 58.218L64.5735 58.064L64.7275 59.142C64.2142 59.8607 63.7522 60.5793 63.3415 61.298C63.0335 62.0167 62.7768 63.2487 62.5715 64.994L61.4935 77.622H86.1335V86.708H61.6475L60.5695 110.578C60.2615 118.381 60.4668 124.438 61.1855 128.75C61.9042 132.959 63.1875 135.885 65.0355 137.528C66.8835 139.068 69.3475 139.838 72.4275 139.838C75.8155 139.838 78.7928 139.171 81.3595 137.836C84.0288 136.501 86.8008 134.807 89.6755 132.754L93.0635 141.532C89.5728 144.099 85.9795 145.998 82.2835 147.23C78.5875 148.462 74.7375 149.078 70.7335 149.078Z" fill="white"/>
<path d="M56.8735 144.92L52.1907 150.123L52.2331 150.161L52.276 150.199L56.8735 144.92ZM50.7135 132.138L43.8188 133.348L43.8206 133.358L43.8225 133.369L50.7135 132.138ZM49.6355 109.808L42.6411 109.528L42.6403 109.549L42.6396 109.569L49.6355 109.808ZM50.5595 86.708L57.5539 86.9878L57.8451 79.708H50.5595V86.708ZM35.4675 86.708H28.4675V93.708H35.4675V86.708ZM35.4675 77.622V70.622H28.4675V77.622H35.4675ZM50.8675 77.622V84.622H57.6323L57.8634 77.8612L50.8675 77.622ZM51.4835 59.604L50.6495 52.6539L44.6926 53.3687L44.4876 59.3648L51.4835 59.604ZM63.0335 58.218L62.3369 51.2527L62.2681 51.2596L62.1995 51.2679L63.0335 58.218ZM64.5735 58.064L71.5031 57.074L70.5541 50.431L63.8769 51.0987L64.5735 58.064ZM64.7275 59.142L70.4236 63.2107L72.0538 60.9285L71.6571 58.152L64.7275 59.142ZM63.3415 61.298L57.2638 57.825L57.0652 58.1726L56.9075 58.5405L63.3415 61.298ZM62.5715 64.994L55.6194 64.1761L55.6064 64.2872L55.5969 64.3986L62.5715 64.994ZM61.4935 77.622L54.5189 77.0266L53.8705 84.622H61.4935V77.622ZM86.1335 77.622H93.1335V70.622H86.1335V77.622ZM86.1335 86.708V93.708H93.1335V86.708H86.1335ZM61.6475 86.708V79.708H54.9565L54.6546 86.3922L61.6475 86.708ZM60.5695 110.578L53.5766 110.262L53.5757 110.282L53.5749 110.302L60.5695 110.578ZM61.1855 128.75L54.2807 129.901L54.283 129.914L54.2853 129.928L61.1855 128.75ZM65.0355 137.528L60.385 142.76L60.4684 142.834L60.5542 142.906L65.0355 137.528ZM81.3595 137.836L78.229 131.575L78.1793 131.6L78.13 131.625L81.3595 137.836ZM89.6755 132.754L96.206 130.233L92.9546 121.809L85.6068 127.058L89.6755 132.754ZM93.0635 141.532L97.2102 147.172L101.52 144.002L99.594 139.011L93.0635 141.532ZM82.2835 147.23L80.0699 140.589L82.2835 147.23ZM70.7335 142.078C65.6414 142.078 62.9222 140.905 61.471 139.641L52.276 150.199C57.1901 154.479 63.7109 156.078 70.7335 156.078V142.078ZM61.5563 139.717C60.0245 138.338 58.467 135.738 57.6045 130.907L43.8225 133.369C45.0133 140.037 47.5625 145.958 52.1907 150.123L61.5563 139.717ZM57.6082 130.928C56.6967 125.733 56.3324 118.819 56.6314 110.046L42.6396 109.569C42.3226 118.866 42.677 126.839 43.8188 133.348L57.6082 130.928ZM56.6299 110.088L57.5539 86.9878L43.5651 86.4282L42.6411 109.528L56.6299 110.088ZM50.5595 79.708H35.4675V93.708H50.5595V79.708ZM42.4675 86.708V77.622H28.4675V86.708H42.4675ZM35.4675 84.622H50.8675V70.622H35.4675V84.622ZM57.8634 77.8612L58.4794 59.8432L44.4876 59.3648L43.8716 77.3828L57.8634 77.8612ZM52.3175 66.5541L63.8675 65.1681L62.1995 51.2679L50.6495 52.6539L52.3175 66.5541ZM63.7301 65.1833L65.2701 65.0292L63.8769 51.0987L62.3369 51.2527L63.7301 65.1833ZM57.6439 59.054L57.7979 60.132L71.6571 58.152L71.5031 57.074L57.6439 59.054ZM59.0314 55.0733C58.3899 55.9713 57.799 56.8884 57.2638 57.825L69.4192 64.771C69.7053 64.2703 70.0384 63.75 70.4236 63.2107L59.0314 55.0733ZM56.9075 58.5405C56.1677 60.2668 55.8304 62.3832 55.6194 64.1761L69.5236 65.8119C69.6108 65.0704 69.6973 64.5417 69.7709 64.1887C69.8069 64.0158 69.8331 63.9176 69.8441 63.8797C69.8569 63.8353 69.8393 63.9066 69.7755 64.0554L56.9075 58.5405ZM55.5969 64.3986L54.5189 77.0266L68.4681 78.2174L69.5461 65.5894L55.5969 64.3986ZM61.4935 84.622H86.1335V70.622H61.4935V84.622ZM79.1335 77.622V86.708H93.1335V77.622H79.1335ZM86.1335 79.708H61.6475V93.708H86.1335V79.708ZM54.6546 86.3922L53.5766 110.262L67.5624 110.894L68.6404 87.0238L54.6546 86.3922ZM53.5749 110.302C53.2603 118.272 53.4452 124.887 54.2807 129.901L68.0903 127.599C67.4885 123.989 67.2627 118.489 67.5641 110.854L53.5749 110.302ZM54.2853 129.928C55.0959 134.676 56.7513 139.53 60.385 142.76L69.6861 132.296C69.7027 132.311 69.4477 132.088 69.0975 131.29C68.747 130.491 68.3789 129.29 68.0857 127.572L54.2853 129.928ZM60.5542 142.906C63.9785 145.759 68.1785 146.838 72.4275 146.838V132.838C70.5165 132.838 69.7885 132.377 69.5168 132.15L60.5542 142.906ZM72.4275 146.838C76.7474 146.838 80.8671 145.982 84.589 144.047L78.13 131.625C76.7186 132.359 74.8836 132.838 72.4275 132.838V146.838ZM84.49 144.097C87.5393 142.572 90.6244 140.679 93.7442 138.45L85.6068 127.058C82.9773 128.936 80.5184 130.43 78.229 131.575L84.49 144.097ZM83.145 135.275L86.533 144.053L99.594 139.011L96.206 130.233L83.145 135.275ZM88.9168 135.892C85.949 138.075 83.0003 139.612 80.0699 140.589L84.4971 153.871C88.9587 152.384 93.1966 150.123 97.2102 147.172L88.9168 135.892ZM80.0699 140.589C77.1075 141.577 74.0063 142.078 70.7335 142.078V156.078C75.4687 156.078 80.0676 155.347 84.4971 153.871L80.0699 140.589Z" fill="black"/>
<path d="M144.413 172.425C138.513 172.425 134.013 171.075 130.913 168.375C127.913 165.675 125.913 161.525 124.913 155.925C123.913 150.225 123.563 142.975 123.863 134.175L124.763 111.675H110.063V102.825H125.063L125.663 85.275L136.913 83.925L138.413 83.775L138.563 84.825C138.063 85.525 137.613 86.225 137.213 86.925C136.913 87.625 136.663 88.825 136.463 90.525L135.413 102.825H159.413V111.675H135.563L134.513 134.925C134.213 142.525 134.413 148.425 135.113 152.625C135.813 156.725 137.063 159.575 138.863 161.175C140.663 162.675 143.063 163.425 146.063 163.425C149.363 163.425 152.263 162.775 154.763 161.475C157.363 160.175 160.063 158.525 162.863 156.525L166.163 165.075C162.763 167.575 159.263 169.425 155.663 170.625C152.063 171.825 148.313 172.425 144.413 172.425Z" fill="white"/>
<path d="M130.913 168.375L126.23 173.578L126.272 173.616L126.315 173.654L130.913 168.375ZM124.913 155.925L118.018 157.135L118.02 157.145L118.022 157.156L124.913 155.925ZM123.862 134.175L116.868 133.895L116.867 133.916L116.867 133.937L123.862 134.175ZM124.763 111.675L131.757 111.955L132.048 104.675H124.763V111.675ZM110.062 111.675H103.062V118.675H110.062V111.675ZM110.062 102.825V95.825H103.062V102.825H110.062ZM125.062 102.825V109.825H131.827L132.058 103.064L125.062 102.825ZM125.663 85.275L124.828 78.3249L118.872 79.0397L118.667 85.0358L125.663 85.275ZM136.913 83.925L136.216 76.9597L136.147 76.9666L136.078 76.9749L136.913 83.925ZM138.413 83.775L145.342 82.785L144.393 76.142L137.716 76.8097L138.413 83.775ZM138.563 84.825L144.259 88.8937L145.889 86.6115L145.492 83.835L138.563 84.825ZM137.213 86.925L131.135 83.452L130.936 83.7996L130.778 84.1675L137.213 86.925ZM136.463 90.525L129.51 89.7071L129.497 89.8182L129.488 89.9296L136.463 90.525ZM135.413 102.825L128.438 102.23L127.789 109.825H135.413V102.825ZM159.413 102.825H166.413V95.825H159.413V102.825ZM159.413 111.675V118.675H166.413V111.675H159.413ZM135.562 111.675V104.675H128.871L128.57 111.359L135.562 111.675ZM134.513 134.925L127.52 134.609L127.519 134.629L127.518 134.649L134.513 134.925ZM135.113 152.625L128.208 153.776L128.21 153.789L128.212 153.803L135.113 152.625ZM138.863 161.175L134.212 166.407L134.295 166.481L134.381 166.553L138.863 161.175ZM154.763 161.475L151.632 155.214L151.582 155.239L151.533 155.264L154.763 161.475ZM162.863 156.525L169.393 154.004L166.142 145.58L158.794 150.829L162.863 156.525ZM166.163 165.075L170.309 170.715L174.619 167.545L172.693 162.554L166.163 165.075ZM155.663 170.625L153.449 163.984H153.449L155.663 170.625ZM144.413 165.425C139.478 165.425 136.879 164.288 135.51 163.096L126.315 173.654C131.146 177.862 137.547 179.425 144.413 179.425V165.425ZM135.595 163.172C134.144 161.865 132.639 159.375 131.803 154.694L118.022 157.156C119.186 163.675 121.681 169.485 126.23 173.578L135.595 163.172ZM131.807 154.715C130.922 149.672 130.567 142.952 130.858 134.413L116.867 133.937C116.558 142.998 116.903 150.778 118.018 157.135L131.807 154.715ZM130.857 134.455L131.757 111.955L117.768 111.395L116.868 133.895L130.857 134.455ZM124.763 104.675H110.062V118.675H124.763V104.675ZM117.062 111.675V102.825H103.062V111.675H117.062ZM110.062 109.825H125.062V95.825H110.062V109.825ZM132.058 103.064L132.658 85.5142L118.667 85.0358L118.067 102.586L132.058 103.064ZM126.497 92.2251L137.747 90.8751L136.078 76.9749L124.828 78.3249L126.497 92.2251ZM137.609 90.8903L139.109 90.7402L137.716 76.8097L136.216 76.9597L137.609 90.8903ZM131.483 84.765L131.633 85.815L145.492 83.835L145.342 82.785L131.483 84.765ZM132.866 80.7563C132.238 81.6357 131.659 82.5341 131.135 83.452L143.29 90.398C143.566 89.9159 143.887 89.4143 144.259 88.8937L132.866 80.7563ZM130.778 84.1675C130.047 85.8751 129.716 87.9595 129.51 89.7071L143.415 91.3429C143.499 90.6241 143.583 90.1147 143.653 89.7777C143.687 89.6128 143.712 89.5218 143.721 89.4902C143.732 89.4521 143.712 89.529 143.647 89.6824L130.778 84.1675ZM129.488 89.9296L128.438 102.23L142.387 103.42L143.437 91.1204L129.488 89.9296ZM135.413 109.825H159.413V95.825H135.413V109.825ZM152.413 102.825V111.675H166.413V102.825H152.413ZM159.413 104.675H135.562V118.675H159.413V104.675ZM128.57 111.359L127.52 134.609L141.505 135.241L142.555 111.991L128.57 111.359ZM127.518 134.649C127.211 142.417 127.391 148.874 128.208 153.776L142.017 151.474C141.434 147.976 141.214 142.633 141.507 135.201L127.518 134.649ZM128.212 153.803C129.004 158.441 130.626 163.22 134.212 166.407L143.513 155.943C143.554 155.979 143.319 155.786 142.986 155.026C142.652 154.265 142.297 153.11 142.013 151.447L128.212 153.803ZM134.381 166.553C137.757 169.366 141.893 170.425 146.062 170.425V156.425C144.232 156.425 143.568 155.984 143.344 155.797L134.381 166.553ZM146.062 170.425C150.294 170.425 154.337 169.586 157.992 167.686L151.533 155.264C150.188 155.964 148.431 156.425 146.062 156.425V170.425ZM157.893 167.736C160.873 166.246 163.886 164.396 166.931 162.221L158.794 150.829C156.239 152.654 153.852 154.104 151.632 155.214L157.893 167.736ZM156.332 159.046L159.632 167.596L172.693 162.554L169.393 154.004L156.332 159.046ZM162.016 159.435C159.139 161.551 156.283 163.039 153.449 163.984L157.876 177.266C162.242 175.811 166.386 173.599 170.309 170.715L162.016 159.435ZM153.449 163.984C150.582 164.94 147.581 165.425 144.413 165.425V179.425C149.044 179.425 153.543 178.71 157.876 177.266L153.449 163.984Z" fill="black"/>
</svg>
