<?xml version="1.0" standalone="no"?>
<!DOCTYPE svg PUBLIC "-//W3C//DTD SVG 20010904//EN"
 "http://www.w3.org/TR/2001/REC-SVG-20010904/DTD/svg10.dtd">
<svg version="1.0" xmlns="http://www.w3.org/2000/svg"
 width="515.000000pt" height="515.000000pt" viewBox="0 0 515.000000 515.000000"
 preserveAspectRatio="xMidYMid meet">
<metadata>
Created by potrace 1.14, written by Peter Selinger 2001-2017
</metadata>
<g transform="translate(0.000000,515.000000) scale(0.100000,-0.100000)"
fill="#000000" stroke="none">
<path d="M2345 5130 c-80 -9 -150 -18 -181 -24 -12 -2 -38 -7 -57 -10 -129
-21 -403 -103 -527 -158 -270 -120 -460 -240 -674 -423 -337 -288 -599 -675
-746 -1102 -44 -128 -90 -307 -106 -411 -3 -20 -7 -48 -10 -62 -12 -73 -19
-205 -19 -375 0 -157 -3 -192 -15 -202 -13 -10 -13 -12 2 -18 16 -6 20 -21 34
-125 46 -353 186 -725 388 -1035 145 -222 337 -436 531 -590 28 -22 52 -42 55
-45 14 -14 124 -95 143 -105 12 -7 54 -32 92 -55 97 -60 283 -152 390 -194 97
-37 300 -101 350 -109 17 -3 62 -12 101 -21 39 -8 97 -18 130 -21 32 -3 70 -9
84 -12 44 -9 432 -11 515 -2 70 8 197 27 290 45 54 10 178 44 275 76 451 148
881 446 1180 818 19 24 52 64 73 88 20 24 44 57 53 74 9 17 37 63 62 102 66
103 220 416 205 416 -3 0 -1 6 5 12 13 17 79 222 102 322 53 223 63 326 64
637 1 207 -3 303 -11 320 -10 21 -18 57 -40 179 -7 44 -34 142 -60 225 -141
447 -422 876 -765 1168 -28 23 -58 49 -68 57 -9 8 -30 25 -46 37 -16 12 -50
37 -77 57 -26 20 -52 36 -57 36 -6 0 -10 5 -10 10 0 6 -4 10 -9 10 -6 0 -29
13 -53 29 -250 168 -683 327 -998 366 -25 3 -61 8 -80 11 -59 9 -441 12 -515
4z"/>
</g>
</svg>
